<?xml version="1.0" standalone="no"?>
<!DOCTYPE svg PUBLIC "-//W3C//DTD SVG 20010904//EN"
 "http://www.w3.org/TR/2001/REC-SVG-20010904/DTD/svg10.dtd">
<svg version="1.0" xmlns="http://www.w3.org/2000/svg"
 width="500.000000pt" height="500.000000pt" viewBox="0 0 500.000000 500.000000"
 preserveAspectRatio="xMidYMid meet">

<g transform="translate(0.000000,500.000000) scale(0.100000,-0.100000)"
fill="#000000" stroke="none">
<path d="M1650 2650 l0 -430 90 0 90 0 0 430 0 430 -90 0 -90 0 0 -430z"/>
<path d="M1060 3045 c-314 -87 -393 -538 -133 -751 80 -65 148 -87 264 -82 83
3 104 8 162 36 135 67 197 173 197 337 l0 95 -190 0 -190 0 0 -70 0 -70 96 0
97 0 -7 -32 c-20 -101 -152 -159 -252 -112 -85 41 -142 156 -130 266 22 209
217 298 357 162 l36 -35 56 58 c31 32 57 63 57 70 0 21 -92 92 -149 114 -74
28 -197 34 -271 14z"/>
<path d="M3607 2740 c-16 -5 -44 -20 -63 -35 l-34 -26 0 25 c0 26 0 26 -90 26
l-90 0 0 -255 0 -255 90 0 90 0 0 160 c0 97 4 169 11 184 23 49 103 54 139 8
18 -22 20 -40 20 -188 l0 -164 90 0 90 0 0 168 c1 178 4 193 51 211 36 13 76
2 99 -27 18 -22 20 -40 20 -188 l0 -164 91 0 91 0 -4 203 c-3 188 -5 205 -25
237 -12 20 -39 46 -61 57 -83 47 -174 38 -243 -24 l-39 -36 -24 26 c-13 14
-37 32 -53 40 -38 20 -120 29 -156 17z"/>
</g>
</svg>
